<svg width="720" height="720" viewBox="0 0 720 720" fill="none" xmlns="http://www.w3.org/2000/svg"><path d="M354.213 465.072h-42.985V98.658c0-3.062-1.998-5.4-4.677-6.293-2.891-.893-5.74.17-7.398 2.678L1.106 535.822c-1.445 1.998-1.445 4.507-.17 6.675 1.063 2.168 3.232 3.614 5.74 3.614H226.62v49.66c0 3.402 3.061 6.463 6.675 6.463h71.259c3.614 0 6.675-3.061 6.675-6.463v-49.66h43.028c3.614 0 6.675-2.891 6.675-6.675v-67.688c-.043-3.784-2.934-6.675-6.718-6.675Zm-127.765.213h-82.611l82.611-122.195v122.195ZM715.823 352.955 501.11 228.932c-2.338-1.446-5.06 1.062-3.954 3.614 17.262 39.073 26.828 82.441 26.828 127.807s-9.523 88.563-26.658 127.424c-1.063 2.509 1.616 4.847 3.954 3.614l214.543-123.81c5.57-3.487 5.57-11.395 0-14.626Z" fill="#fff"/></svg>